<svg width="56" height="56" viewBox="0 0 56 56" fill="none" xmlns="http://www.w3.org/2000/svg">
<circle cx="28" cy="28" r="28" fill="#88DBF9"/>
<path d="M26.7762 10.4489C26.0493 10.4596 25.3137 10.5051 24.5715 10.5929C23.4804 10.789 22.4265 11.1058 21.4845 11.5147C20.2977 11.96 19.0703 12.4201 17.9608 12.4855C17.9047 12.4885 17.8497 12.4963 17.7955 12.5077C16.2443 12.8383 14.9065 13.6297 14.0454 14.7165L13.907 14.8827C13.8785 14.9177 13.8518 14.9546 13.8298 14.9926C13.0708 16.3043 12.8687 17.8066 13.2781 19.2765C13.5412 19.9871 13.855 20.6696 14.1586 21.3308L14.252 21.5312C14.9614 22.9061 15.4766 24.3504 15.7848 25.824C15.8004 25.8985 15.8287 25.9709 15.8692 26.0378C16.1719 26.5333 16.4087 27.0548 16.5808 27.6157C16.6571 27.8353 16.7351 28.0609 16.8198 28.2881C16.8437 28.3527 16.8898 28.4056 16.9312 28.4603C16.933 28.5401 16.9457 28.6203 16.9779 28.6978L18.2555 31.717C18.3419 31.9222 18.5301 32.0862 18.773 32.1683C19.0168 32.2503 19.2903 32.2425 19.5259 32.1475C21.9381 31.1792 27.5881 28.9122 35.3833 32.9387C35.5323 33.0154 35.7018 33.0544 35.872 33.0544C35.9962 33.0544 36.12 33.0347 36.2368 32.9921C36.5146 32.8925 36.7161 32.6869 36.7741 32.4414C36.9627 31.6487 37.0298 30.3764 36.9681 29.3405L37.0256 29.1134C37.1001 28.8132 37.1738 28.5089 37.252 28.208C37.9807 26.8688 39.2694 25.5743 40.517 24.3219C42.472 22.3588 44.4939 20.3294 44.3191 18.0608C44.3109 17.9574 44.2782 17.8558 44.2221 17.7639C43.9341 17.2957 43.6115 16.84 43.2123 16.3285L43.135 16.2261C43.0421 16.106 42.9486 15.9875 42.8529 15.8743C42.7811 15.7892 42.7081 15.7084 42.6355 15.6294L42.5582 15.5433C42.4119 15.3821 42.2661 15.2217 42.1162 15.0697C42.0352 14.9892 41.9552 14.9125 41.8484 14.813C41.6819 14.6549 41.5164 14.5024 41.3471 14.3572L41.1243 14.1702C40.9283 14.0099 40.7317 13.8573 40.5385 13.7175L40.3966 13.6165C37.9503 11.8929 35.438 11.4395 33.908 11.1629L33.0545 11.004C31.0618 10.6883 28.957 10.4167 26.7762 10.4489ZM27.6891 11.9719C28.5217 11.9921 29.3679 12.0578 30.2442 12.1574C27.2469 15.8442 27.758 20.8296 28.4563 25.1783C27.5418 25.1198 26.6051 25.1032 25.6658 25.1412C25.134 22.5527 24.5781 19.3031 24.1043 16.7426C23.9626 15.5897 24.0855 14.4257 24.4655 13.3108C24.8427 12.6397 24.878 12.2609 25.2166 12.058C26.0386 11.9763 26.8565 11.9516 27.6891 11.9719ZM24.7188 12.1307C24.3113 12.4157 24.0138 12.8655 23.8114 13.4355C23.4719 14.5945 23.3568 15.7893 23.47 16.9787C23.6945 19.7557 24.3051 22.4974 25.2435 25.165C24.3566 25.2167 23.4746 25.3142 22.6255 25.4708C21.9815 23.6369 22.0949 21.553 21.887 19.6105C21.6763 17.3897 20.7921 15.286 19.666 14.0411C19.5887 13.8891 19.5981 13.8125 19.6211 13.7501C20.1105 13.6316 20.5929 13.4868 21.0676 13.3226C21.1237 13.3485 21.1805 13.3738 21.2311 13.4072L21.2491 13.3894C21.1994 13.3606 21.147 13.3388 21.0945 13.3137C21.5012 13.1724 21.903 13.027 22.2912 12.8803C23.0769 12.5398 23.9092 12.2918 24.7188 12.1307ZM21.2311 13.4072L21.2203 13.4176H21.2491C21.2435 13.4138 21.2375 13.4118 21.2311 13.4072ZM30.2945 12.1619C31.0627 12.25 31.8528 12.3614 32.6808 12.4929L33.5433 12.6532C34.1808 12.7687 34.9696 12.9159 35.8307 13.1712C34.3403 15.373 33.3348 17.7781 32.8766 20.2755C32.5473 22.0812 32.3968 23.9036 32.3987 25.7276C31.2781 25.4745 29.9956 25.2875 28.645 25.1917C28.5916 24.2227 28.5531 23.2371 28.6019 22.6831C28.762 20.8477 28.9477 15.1722 30.2945 12.1619ZM36.0661 13.238C37.056 13.5519 38.1344 14.0197 39.2016 14.7714L39.322 14.859C39.4913 14.9813 39.6595 15.1125 39.8287 15.2508L40.0228 15.4126C40.1682 15.538 40.3134 15.6707 40.4882 15.8372C40.5572 15.9025 40.6259 15.9677 40.693 16.0346C40.7942 16.1372 40.8928 16.2473 40.9931 16.3567C39.293 16.9024 36.4704 22.0813 36.0859 26.7637C36.0187 26.8617 35.949 26.9588 35.8864 27.0576C35.1182 26.524 34.0281 26.1381 33.0473 25.8805C32.8928 25.8402 32.7259 25.8042 32.564 25.7662C32.7112 23.93 32.9195 22.0055 33.121 20.2651C33.7742 17.4075 35.4479 15.9421 36.0661 13.238ZM19.3336 13.8229C19.3787 13.9293 19.4491 14.0294 19.542 14.1153C20.6571 15.3647 20.8733 17.3973 21.1143 19.6134C21.3195 21.5674 21.5547 23.6626 22.4278 25.5079C21.6835 25.6546 20.9702 25.8481 20.2967 26.0897C19.7466 24.4459 19.4844 22.5925 19.0695 20.9167C18.5064 18.6504 18.4327 16.6221 17.5026 16.0034C17.1456 15.5968 16.1902 15.6328 16.6419 14.8857C16.7495 14.7261 16.8832 14.5804 17.012 14.4315C17.3764 14.2475 17.7623 14.0915 18.1818 13.9965C18.5664 13.9684 18.9509 13.905 19.3336 13.8229ZM16.7048 14.5844C16.6183 14.6816 16.5328 14.7807 16.4712 14.8916C16.3047 15.1455 16.2323 15.4341 16.2645 15.7214C16.2931 15.8719 16.3671 16.0147 16.4766 16.137C17.3956 16.7427 17.8722 18.6676 18.4298 20.9256C18.8502 22.6272 19.3368 24.51 20.0811 26.1744C19.4371 26.4198 18.8387 26.7147 18.2968 27.062C18.1146 26.511 17.8772 25.9704 17.5727 25.4559C17.2378 23.904 16.6905 22.3846 15.9573 20.9642L15.8782 20.792C15.5856 20.1544 15.2825 19.4956 15.0534 18.8861C14.759 17.8213 14.9021 16.6924 15.4577 15.7021L15.5691 15.57C15.8755 15.1831 16.2613 14.8511 16.7048 14.5844ZM41.0776 16.4487C41.0794 16.4503 41.0793 16.4509 41.0812 16.4532L41.1674 16.5467C41.2281 16.6113 41.2874 16.6772 41.3453 16.7456C41.4263 16.8414 41.5052 16.9429 41.5843 17.0455L41.667 17.1523C41.9899 17.565 42.2544 17.9363 42.4899 18.3072C42.5102 19.9298 40.8509 21.5961 39.0974 23.357C38.4148 24.0418 37.7222 24.7383 37.0957 25.4619C38.5116 22.4675 39.8788 19.4842 41.0776 16.4487ZM26.2947 26.6553C28.5303 26.613 30.7785 26.8808 32.4903 27.3307C34.5336 27.8672 35.0208 28.4298 35.0401 28.5924C35.0741 28.7794 35.0981 29.0069 35.1155 29.247L35.1102 29.2663C35.0789 29.3902 35.0975 29.51 35.1371 29.624C35.1546 30.0876 35.1486 30.587 35.1173 31.049C31.9093 29.6035 29.0234 29.1194 26.5642 29.1194C23.5595 29.1194 21.1934 29.8429 19.657 30.4167L18.8987 28.6251C20.5672 27.2759 23.4204 26.7097 26.2947 26.6553ZM21.6138 33.6096L21.197 33.8412C21.3736 34.0859 21.6021 34.3023 21.8708 34.4809C22.0824 34.5904 22.3294 34.6437 22.5787 34.6338C22.7066 34.633 22.8328 34.6189 22.9561 34.5893L24.3469 34.1737C24.4416 34.1433 24.5422 34.1276 24.6434 34.1276C24.7961 34.1193 24.9485 34.1534 25.0764 34.2241C25.2521 34.3427 25.4041 34.4817 25.5274 34.6383L25.9227 34.4557V34.4468C25.7516 34.2271 25.5377 34.0327 25.2902 33.8708C25.0915 33.7568 24.8548 33.6963 24.6128 33.7001C24.5319 33.6986 24.4501 33.7114 24.3756 33.7372L22.8698 34.1529C22.7742 34.1772 22.6736 34.1878 22.5734 34.1855C22.3949 34.1962 22.2165 34.1556 22.0702 34.0697C21.8872 33.9383 21.7334 33.7829 21.6138 33.6096ZM37.0616 34.4379C36.918 34.4485 36.7861 34.5069 36.695 34.5997C36.5855 34.6764 36.5157 34.7839 36.4991 34.9025C36.489 34.9283 36.489 34.9568 36.4991 34.9826C36.823 35.2654 37.2368 35.4643 37.6941 35.5586C38.1513 35.6749 38.609 35.787 39.0561 35.8911C39.5087 36.015 39.893 36.2684 40.1414 36.6051C40.146 36.6203 40.146 36.6359 40.1414 36.6511C40.1414 36.7218 39.936 36.8372 39.5395 37.0029C39.3389 37.0986 39.0373 37.3094 38.535 37.6248C38.2213 37.8369 37.8857 38.0248 37.5305 38.1859C37.2288 38.2969 36.9639 38.4681 36.7615 38.6832C36.7569 38.687 36.7526 38.6905 36.7489 38.6951C36.5888 38.8471 36.608 39.0794 36.792 39.2116C36.8877 39.2876 37.0162 39.3289 37.1496 39.3274C37.2444 39.3259 37.3372 39.306 37.4209 39.2695C38.0686 38.9321 38.6909 38.5612 39.2843 38.1607C39.886 37.7488 40.5143 37.3624 41.1638 37.0029C41.5254 36.8205 41.7011 36.6297 41.7011 36.4344C41.6891 36.3036 41.6027 36.1851 41.4693 36.1152C40.6948 35.5407 39.7811 35.1142 38.7902 34.8579L38.0606 34.5967C37.815 34.5047 37.5512 34.4508 37.2826 34.4379C37.209 34.4295 37.1342 34.4295 37.0616 34.4379ZM17.021 34.4809C16.3789 34.8792 15.6764 35.2055 14.9312 35.4517C14.1925 35.7033 13.4927 36.0267 12.8469 36.4151C12.5332 36.6469 12.3502 36.9762 12.3438 37.3235C12.3805 37.455 12.4938 37.5643 12.6456 37.6144C12.7809 37.6517 12.9227 37.6965 13.0589 37.7421C14.4325 38.2232 15.7215 38.7415 16.9276 39.2947C17.0877 39.3905 17.2378 39.4954 17.3786 39.6094C17.4706 39.6429 17.5694 39.6599 17.6697 39.6599C17.9172 39.6614 18.1585 39.591 18.3489 39.461C18.543 39.347 18.6452 39.1546 18.6148 38.9593C18.6231 38.8156 18.5189 38.6829 18.3579 38.6297L16.2789 37.8742C15.5889 37.6325 14.9159 37.3553 14.2682 37.0444C14.7227 36.577 15.3355 36.2308 16.0273 36.0484C16.7146 35.8653 17.3488 35.5671 17.8907 35.1726C17.9689 35.1111 18.012 35.0255 18.0111 34.9366C18.0074 34.8112 17.9358 34.6935 17.8152 34.6175C17.6717 34.5263 17.4951 34.4779 17.3139 34.4809H17.021ZM31.5595 35.6551C31.1547 35.6429 30.7598 35.764 30.4598 35.9905C30.1222 36.2664 29.9804 36.6658 30.0825 37.0489C30.1285 37.4106 30.3041 37.7533 30.5856 38.033C30.823 38.2945 31.1945 38.4472 31.5901 38.4472C31.8495 38.4441 32.1032 38.388 32.3286 38.2824C32.8226 37.9906 33.0824 37.4977 33.006 36.9999C32.9812 36.4398 32.8212 36.0616 32.5047 35.8792C32.225 35.7257 31.8953 35.6475 31.5595 35.6551ZM23.7629 35.6833C23.3581 35.6703 22.9631 35.79 22.6632 36.0158C22.3237 36.2909 22.1793 36.6903 22.2805 37.0741C22.3292 37.4351 22.5048 37.7771 22.7836 38.0583C23.02 38.3197 23.3924 38.4732 23.788 38.4724C24.0475 38.4686 24.3002 38.4125 24.5266 38.3076C24.9783 38.0834 25.2004 37.6597 25.2004 37.0251C25.2584 36.6087 25.076 36.1932 24.708 35.9044C24.4284 35.7517 24.0978 35.6749 23.7629 35.6833ZM23.7431 36.5754C24.021 36.5754 24.2462 36.7615 24.2462 36.991C24.2462 37.2205 24.021 37.4066 23.7431 37.4066C23.4653 37.4066 23.24 37.2205 23.24 36.991C23.24 36.7615 23.4653 36.5754 23.7431 36.5754ZM31.3996 36.6229C31.6765 36.6221 31.9027 36.8075 31.9027 37.037C31.9027 37.2665 31.6765 37.4526 31.3996 37.4526C31.1218 37.4526 30.8983 37.2665 30.8983 37.037C30.8983 36.8075 31.1218 36.6229 31.3996 36.6229ZM26.5319 39.5367C26.5208 39.5458 26.514 39.5564 26.5085 39.5694V39.6035C26.5775 39.7623 26.6642 39.914 26.7691 40.0592C26.8638 40.1983 26.9832 40.3268 27.1212 40.4377C27.2454 40.5449 27.3906 40.6336 27.5525 40.699C27.7117 40.7544 27.8827 40.785 28.0556 40.7895L28.0754 40.8073C28.2143 40.8081 28.3518 40.7868 28.4815 40.745C28.6057 40.7032 28.7233 40.6493 28.8319 40.5847C28.9349 40.5163 29.032 40.4418 29.1194 40.3605C29.2022 40.283 29.2751 40.2001 29.3386 40.1112C29.3993 40.0329 29.4543 39.9514 29.5003 39.8662C29.5362 39.8047 29.5654 39.7416 29.5866 39.6762V39.6391C29.5764 39.6277 29.5678 39.6149 29.5614 39.602C29.4308 39.7685 29.2684 39.9146 29.0798 40.0369C28.9354 40.1494 28.7635 40.236 28.5767 40.2908C28.3881 40.3447 28.1888 40.371 27.9891 40.3694C27.8189 40.3717 27.6489 40.3518 27.486 40.3115C27.3462 40.2751 27.2156 40.2183 27.0997 40.1453C26.9819 40.067 26.8754 39.9791 26.7834 39.8811C26.6868 39.7732 26.6018 39.6575 26.5319 39.5367ZM25.2004 41.1294C23.1911 41.2168 22.02 43.3487 19.2168 41.3818C18.4532 45.1582 24.0397 45.5327 26.336 43.8265C27.9239 42.6561 27.4765 41.0253 25.2004 41.1294ZM29.804 41.1294C27.8852 41.2272 27.5858 42.73 29.0745 43.8265C31.3708 45.532 36.9555 45.1582 36.1919 41.3818C33.3886 43.3487 32.2185 41.2161 30.2083 41.1294C30.066 41.1229 29.9319 41.1229 29.804 41.1294Z" fill="#232530"/>
</svg>
