<svg width="325" height="175" viewBox="0 0 325 175" fill="none" xmlns="http://www.w3.org/2000/svg">
<rect y="50.7183" width="106.503" height="124.071" fill="url(#paint0_linear_0_1)"/>
<rect x="106.504" y="16.6812" width="111.993" height="158.108" fill="url(#paint1_linear_0_1)"/>
<path d="M122.425 0.211426H201.479L218.497 16.681H106.504L122.425 0.211426Z" fill="#DAB9FF"/>
<rect x="218" y="82.4697" width="106.503" height="92.2297" fill="#CCA1FC"/>
<path d="M14.2736 33.1504H106.503V50.718H0L14.2736 33.1504Z" fill="#DAB9FF"/>
<path d="M218 66H308.034L324.503 82.4696H218V66Z" fill="#DAB9FF"/>
<path d="M172.41 69.9305V127.424H160.254V81.4685H159.917L146.751 89.722V78.9419L160.984 69.9305H172.41Z" fill="#232530"/>
<path d="M270.263 156.962C266.071 156.962 262.337 156.241 259.062 154.8C255.805 153.34 253.232 151.338 251.342 148.793C249.47 146.229 248.506 143.271 248.45 139.921H260.69C260.765 141.325 261.224 142.56 262.066 143.627C262.927 144.675 264.068 145.489 265.491 146.069C266.913 146.65 268.513 146.94 270.291 146.94C272.144 146.94 273.782 146.612 275.204 145.957C276.626 145.302 277.74 144.394 278.545 143.234C279.349 142.074 279.752 140.736 279.752 139.22C279.752 137.685 279.321 136.328 278.46 135.149C277.618 133.951 276.402 133.015 274.811 132.342C273.239 131.668 271.367 131.331 269.196 131.331H263.834V122.404H269.196C271.03 122.404 272.649 122.086 274.053 121.449C275.475 120.813 276.58 119.933 277.366 118.81C278.152 117.669 278.545 116.34 278.545 114.824C278.545 113.383 278.198 112.12 277.506 111.034C276.832 109.93 275.878 109.069 274.643 108.451C273.426 107.834 272.004 107.525 270.375 107.525C268.728 107.525 267.222 107.824 265.856 108.423C264.489 109.003 263.395 109.836 262.571 110.922C261.748 112.007 261.308 113.28 261.252 114.74H249.601C249.657 111.427 250.603 108.508 252.437 105.981C254.271 103.454 256.741 101.48 259.848 100.058C262.973 98.6164 266.501 97.8959 270.432 97.8959C274.399 97.8959 277.871 98.6164 280.847 100.058C283.822 101.499 286.134 103.445 287.781 105.897C289.446 108.33 290.27 111.062 290.251 114.094C290.27 117.313 289.269 119.999 287.247 122.151C285.245 124.303 282.634 125.67 279.415 126.25V126.699C283.645 127.242 286.864 128.711 289.072 131.106C291.299 133.483 292.403 136.459 292.385 140.034C292.403 143.309 291.458 146.219 289.549 148.764C287.659 151.31 285.048 153.312 281.717 154.772C278.386 156.232 274.568 156.962 270.263 156.962Z" fill="#232530"/>
<path d="M33.207 141.992V133.233L53.6724 114.283C55.4129 112.599 56.8727 111.083 58.0518 109.736C59.2496 108.388 60.1573 107.069 60.7749 105.777C61.3925 104.467 61.7013 103.054 61.7013 101.538C61.7013 99.8539 61.3176 98.4034 60.5503 97.1869C59.783 95.9517 58.7349 95.0066 57.4061 94.3515C56.0773 93.6778 54.5707 93.3409 52.8863 93.3409C51.1271 93.3409 49.5924 93.6965 48.2823 94.4077C46.9722 95.1189 45.9616 96.1388 45.2504 97.4676C44.5392 98.7964 44.1836 100.378 44.1836 102.212H32.6456C32.6456 98.4502 33.4971 95.1844 35.2002 92.4145C36.9033 89.6446 39.2895 87.5017 42.3589 85.9857C45.4282 84.4698 48.9654 83.7118 52.9705 83.7118C57.0879 83.7118 60.6719 84.4417 63.7226 85.9015C66.7919 87.3426 69.1781 89.3451 70.8812 91.9092C72.5843 94.4732 73.4359 97.4115 73.4359 100.724C73.4359 102.895 73.0054 105.038 72.1445 107.153C71.3023 109.268 69.7957 111.617 67.6247 114.199C65.4537 116.763 62.3938 119.842 58.4448 123.435L50.0509 131.661V132.054H74.1939V141.992H33.207Z" fill="#232530"/>
<defs>
<linearGradient id="paint0_linear_0_1" x1="106.503" y1="61.149" x2="-1.22343e-06" y2="184.5" gradientUnits="userSpaceOnUse">
<stop stop-color="#BC80FF"/>
<stop offset="1" stop-color="#BC80FF" stop-opacity="0.2"/>
</linearGradient>
<linearGradient id="paint1_linear_0_1" x1="162.501" y1="16.6812" x2="163" y2="193.5" gradientUnits="userSpaceOnUse">
<stop stop-color="#CD9FFF"/>
<stop offset="1" stop-color="#E3CBFF" stop-opacity="0.5"/>
</linearGradient>
</defs>
</svg>
