<svg width="111" height="111" viewBox="0 0 111 111" fill="none" xmlns="http://www.w3.org/2000/svg">
<g filter="url(#filter0_d_25_453)">
<circle cx="55.5" cy="54.5" r="31" fill="url(#paint0_linear_25_453)"/>
<g filter="url(#filter1_i_25_453)">
<circle cx="55.5002" cy="54.5007" r="20.1506" fill="url(#paint1_radial_25_453)"/>
<circle cx="55.5002" cy="54.5007" r="20.1506" fill="url(#paint2_radial_25_453)" fill-opacity="0.29"/>
<circle cx="55.5002" cy="54.5007" r="20.1506" fill="url(#paint3_linear_25_453)" fill-opacity="0.2" style="mix-blend-mode:multiply"/>
</g>
<circle cx="55.5002" cy="54.5007" r="22.0881" stroke="url(#paint4_linear_25_453)" stroke-width="3.875"/>
<g style="mix-blend-mode:overlay" opacity="0.25">
<circle cx="55.5016" cy="54.5001" r="24.2188" stroke="white" stroke-width="0.3875"/>
</g>
<g filter="url(#filter2_d_25_453)">
<path d="M51.8592 49.5251L55.6924 43.9321L59.5255 49.5251L66.0293 51.4423L61.8945 56.8162L62.0809 63.5941L55.6924 61.3223L49.3038 63.5941L49.4902 56.8162L45.3555 51.4423L51.8592 49.5251Z" fill="white"/>
<path d="M56.9322 43.0824C56.6519 42.6735 56.1881 42.4291 55.6924 42.4291C55.1966 42.4291 54.7328 42.6735 54.4526 43.0824L50.9216 48.2346L44.9305 50.0006C44.455 50.1408 44.0792 50.5064 43.926 50.9779C43.7728 51.4493 43.8619 51.966 44.1642 52.3589L47.9731 57.3091L47.8013 63.5527C47.7877 64.0483 48.0193 64.5187 48.4204 64.81C48.8214 65.1014 49.3403 65.1763 49.8074 65.0102L55.6924 62.9175L61.5773 65.0102C62.0444 65.1763 62.5633 65.1014 62.9644 64.81C63.3654 64.5187 63.597 64.0483 63.5834 63.5527L63.4117 57.3091L67.2205 52.3589C67.5228 51.966 67.6119 51.4493 67.4587 50.9779C67.3055 50.5064 66.9297 50.1408 66.4542 50.0006L60.4631 48.2346L56.9322 43.0824Z" stroke="white" stroke-width="3.00606" stroke-linejoin="round"/>
</g>
<g filter="url(#filter3_i_25_453)">
<path d="M51.8592 49.5251L55.6924 43.9321L59.5255 49.5251L66.0293 51.4423L61.8945 56.8162L62.0809 63.5941L55.6924 61.3223L49.3038 63.5941L49.4902 56.8162L45.3555 51.4423L51.8592 49.5251Z" fill="url(#paint5_linear_25_453)"/>
</g>
</g>
<defs>
<filter id="filter0_d_25_453" x="-14.9475" y="-15.0175" width="140.895" height="140.895" filterUnits="userSpaceOnUse" color-interpolation-filters="sRGB">
<feFlood flood-opacity="0" result="BackgroundImageFix"/>
<feColorMatrix in="SourceAlpha" type="matrix" values="0 0 0 0 0 0 0 0 0 0 0 0 0 0 0 0 0 0 127 0" result="hardAlpha"/>
<feOffset dy="0.93"/>
<feGaussianBlur stdDeviation="11.9738"/>
<feComposite in2="hardAlpha" operator="out"/>
<feColorMatrix type="matrix" values="0 0 0 0 0.847865 0 0 0 0 0.899898 0 0 0 0 0.929167 0 0 0 0.18 0"/>
<feBlend mode="screen" in2="BackgroundImageFix" result="effect1_dropShadow_25_453"/>
<feBlend mode="normal" in="SourceGraphic" in2="effect1_dropShadow_25_453" result="shape"/>
</filter>
<filter id="filter1_i_25_453" x="31.4746" y="30.4751" width="48.0508" height="48.0513" filterUnits="userSpaceOnUse" color-interpolation-filters="sRGB">
<feFlood flood-opacity="0" result="BackgroundImageFix"/>
<feBlend mode="normal" in="SourceGraphic" in2="BackgroundImageFix" result="shape"/>
<feColorMatrix in="SourceAlpha" type="matrix" values="0 0 0 0 0 0 0 0 0 0 0 0 0 0 0 0 0 0 127 0" result="hardAlpha"/>
<feOffset/>
<feGaussianBlur stdDeviation="8.71875"/>
<feComposite in2="hardAlpha" operator="arithmetic" k2="-1" k3="1"/>
<feColorMatrix type="matrix" values="0 0 0 0 0.358333 0 0 0 0 0.0840788 0 0 0 0 0.0627083 0 0 0 1 0"/>
<feBlend mode="normal" in2="shape" result="effect1_innerShadow_25_453"/>
</filter>
<filter id="filter2_d_25_453" x="39.3435" y="39.4232" width="32.6977" height="31.6859" filterUnits="userSpaceOnUse" color-interpolation-filters="sRGB">
<feFlood flood-opacity="0" result="BackgroundImageFix"/>
<feColorMatrix in="SourceAlpha" type="matrix" values="0 0 0 0 0 0 0 0 0 0 0 0 0 0 0 0 0 0 127 0" result="hardAlpha"/>
<feOffset dy="1.50303"/>
<feGaussianBlur stdDeviation="1.50303"/>
<feColorMatrix type="matrix" values="0 0 0 0 0.643137 0 0 0 0 0.262856 0 0 0 0 0.0196078 0 0 0 0.2 0"/>
<feBlend mode="normal" in2="BackgroundImageFix" result="effect1_dropShadow_25_453"/>
<feBlend mode="normal" in="SourceGraphic" in2="effect1_dropShadow_25_453" result="shape"/>
</filter>
<filter id="filter3_i_25_453" x="45.3555" y="43.9321" width="20.6738" height="21.1651" filterUnits="userSpaceOnUse" color-interpolation-filters="sRGB">
<feFlood flood-opacity="0" result="BackgroundImageFix"/>
<feBlend mode="normal" in="SourceGraphic" in2="BackgroundImageFix" result="shape"/>
<feColorMatrix in="SourceAlpha" type="matrix" values="0 0 0 0 0 0 0 0 0 0 0 0 0 0 0 0 0 0 127 0" result="hardAlpha"/>
<feOffset dy="1.50303"/>
<feGaussianBlur stdDeviation="0.751515"/>
<feComposite in2="hardAlpha" operator="arithmetic" k2="-1" k3="1"/>
<feColorMatrix type="matrix" values="0 0 0 0 0.921569 0 0 0 0 0.447059 0 0 0 0 0.105882 0 0 0 0.4 0"/>
<feBlend mode="normal" in2="shape" result="effect1_innerShadow_25_453"/>
</filter>
<linearGradient id="paint0_linear_25_453" x1="55.5" y1="23.5" x2="55.5" y2="85.5" gradientUnits="userSpaceOnUse">
<stop stop-color="#FFC190"/>
<stop offset="1" stop-color="#C35A2A"/>
</linearGradient>
<radialGradient id="paint1_radial_25_453" cx="0" cy="0" r="1" gradientUnits="userSpaceOnUse" gradientTransform="translate(55.5002 54.5007) rotate(90) scale(31.3884)">
<stop stop-color="#DA9062"/>
<stop offset="1" stop-color="#C67341"/>
</radialGradient>
<radialGradient id="paint2_radial_25_453" cx="0" cy="0" r="1" gradientUnits="userSpaceOnUse" gradientTransform="translate(46.5874 47.138) rotate(-44.2462) scale(20.8267 11.0541)">
<stop stop-color="#B57777"/>
<stop offset="1" stop-color="#D28787" stop-opacity="0"/>
</radialGradient>
<linearGradient id="paint3_linear_25_453" x1="55.5002" y1="34.3501" x2="55.5002" y2="74.6512" gradientUnits="userSpaceOnUse">
<stop stop-opacity="0"/>
<stop offset="1"/>
</linearGradient>
<linearGradient id="paint4_linear_25_453" x1="55.5002" y1="34.3501" x2="55.5002" y2="74.6512" gradientUnits="userSpaceOnUse">
<stop stop-color="#C76030"/>
<stop offset="1" stop-color="#FCBC8B"/>
</linearGradient>
<linearGradient id="paint5_linear_25_453" x1="45.3555" y1="43.9321" x2="45.3555" y2="63.5941" gradientUnits="userSpaceOnUse">
<stop stop-color="#B86E4A"/>
<stop offset="1" stop-color="#E39160"/>
</linearGradient>
</defs>
</svg>
