<svg width="58" height="59" viewBox="0 0 58 59" fill="none" xmlns="http://www.w3.org/2000/svg">
<g filter="url(#filter0_d_2032_297)">
<path d="M13.7988 14.9989C13.7988 13.8944 14.6942 12.999 15.7987 12.999H42.1965C43.301 12.999 44.1964 13.8944 44.1964 14.9989V34.9466C44.1964 35.6566 43.82 36.3133 43.2074 36.6722L30.0084 44.4043C29.3842 44.77 28.611 44.77 27.9867 44.4043L14.7878 36.6722C14.1752 36.3133 13.7988 35.6566 13.7988 34.9466V14.9989Z" fill="url(#paint0_linear_2032_297)"/>
<g filter="url(#filter1_i_2032_297)">
<path d="M18.3994 18.1986C18.3994 17.6464 18.8471 17.1987 19.3993 17.1987H38.5978C39.15 17.1987 39.5977 17.6464 39.5977 18.1986V32.6737C39.5977 33.0198 39.4186 33.3414 39.1244 33.5237L29.5252 39.4706C29.2025 39.6705 28.7946 39.6705 28.4719 39.4706L18.8727 33.5237C18.5785 33.3414 18.3994 33.0198 18.3994 32.6737V18.1986Z" fill="url(#paint1_radial_2032_297)"/>
<path d="M18.3994 18.1986C18.3994 17.6464 18.8471 17.1987 19.3993 17.1987H38.5978C39.15 17.1987 39.5977 17.6464 39.5977 18.1986V32.6737C39.5977 33.0198 39.4186 33.3414 39.1244 33.5237L29.5252 39.4706C29.2025 39.6705 28.7946 39.6705 28.4719 39.4706L18.8727 33.5237C18.5785 33.3414 18.3994 33.0198 18.3994 32.6737V18.1986Z" fill="url(#paint2_radial_2032_297)" fill-opacity="0.29"/>
<path d="M18.3994 18.1986C18.3994 17.6464 18.8471 17.1987 19.3993 17.1987H38.5978C39.15 17.1987 39.5977 17.6464 39.5977 18.1986V32.6737C39.5977 33.0198 39.4186 33.3414 39.1244 33.5237L29.5252 39.4706C29.2025 39.6705 28.7946 39.6705 28.4719 39.4706L18.8727 33.5237C18.5785 33.3414 18.3994 33.0198 18.3994 32.6737V18.1986Z" fill="url(#paint3_linear_2032_297)" fill-opacity="0.2"/>
</g>
<path d="M29.9464 40.1507L29.5252 39.4706L29.9464 40.1507L39.5457 34.2037C40.0753 33.8756 40.3976 33.2968 40.3976 32.6737V18.1986C40.3976 17.2046 39.5918 16.3988 38.5978 16.3988H19.3993C18.4053 16.3988 17.5995 17.2046 17.5995 18.1986V32.6737C17.5995 33.2968 17.9218 33.8756 18.4514 34.2037L28.0507 40.1507C28.6314 40.5104 29.3657 40.5104 29.9464 40.1507Z" stroke="url(#paint4_linear_2032_297)" stroke-width="1.59987"/>
<path opacity="0.74" d="M19.3986 15.4991C17.9076 15.4991 16.6988 16.7079 16.6988 18.1989V32.6579C16.6988 33.5904 17.1801 34.4569 17.9717 34.9497L27.5709 40.9263C28.4444 41.4702 29.5512 41.4702 30.4248 40.9263L40.024 34.9497C40.8156 34.4569 41.2968 33.5904 41.2968 32.6579V18.1989C41.2968 16.7079 40.0881 15.4991 38.5971 15.4991H19.3986Z" stroke="url(#paint5_linear_2032_297)" stroke-width="0.199984"/>
<g filter="url(#filter2_d_2032_297)">
<path d="M24.6357 27.3901L29.0833 21.6719L33.5308 27.3901L29.0833 33.1084L24.6357 27.3901Z" fill="white"/>
<path d="M24.0234 26.9139C23.8056 27.194 23.8056 27.5862 24.0234 27.8664L28.471 33.5846C28.6179 33.7736 28.8439 33.8841 29.0833 33.8841C29.3226 33.8841 29.5486 33.7736 29.6956 33.5846L34.1431 27.8664C34.361 27.5862 34.361 27.194 34.1431 26.9139L29.6956 21.1956C29.5486 21.0067 29.3226 20.8962 29.0833 20.8962C28.8439 20.8962 28.6179 21.0067 28.471 21.1956L24.0234 26.9139Z" stroke="white" stroke-width="1.55139" stroke-linejoin="round"/>
</g>
<g filter="url(#filter3_i_2032_297)">
<path d="M24.6357 27.3901L29.0833 21.6719L33.5308 27.3901L29.0833 33.1084L24.6357 27.3901Z" fill="url(#paint6_linear_2032_297)"/>
</g>
</g>
<defs>
<filter id="filter0_d_2032_297" x="-8.48254" y="-8.95895" width="74.9612" height="74.9612" filterUnits="userSpaceOnUse" color-interpolation-filters="sRGB">
<feFlood flood-opacity="0" result="BackgroundImageFix"/>
<feColorMatrix in="SourceAlpha" type="matrix" values="0 0 0 0 0 0 0 0 0 0 0 0 0 0 0 0 0 0 127 0" result="hardAlpha"/>
<feOffset dy="0.523594"/>
<feGaussianBlur stdDeviation="6.74127"/>
<feComposite in2="hardAlpha" operator="out"/>
<feColorMatrix type="matrix" values="0 0 0 0 0.847865 0 0 0 0 0.899898 0 0 0 0 0.929167 0 0 0 0.18 0"/>
<feBlend mode="screen" in2="BackgroundImageFix" result="effect1_dropShadow_2032_297"/>
<feBlend mode="normal" in="SourceGraphic" in2="effect1_dropShadow_2032_297" result="shape"/>
</filter>
<filter id="filter1_i_2032_297" x="16.7998" y="15.5986" width="24.3975" height="25.6216" filterUnits="userSpaceOnUse" color-interpolation-filters="sRGB">
<feFlood flood-opacity="0" result="BackgroundImageFix"/>
<feBlend mode="normal" in="SourceGraphic" in2="BackgroundImageFix" result="shape"/>
<feColorMatrix in="SourceAlpha" type="matrix" values="0 0 0 0 0 0 0 0 0 0 0 0 0 0 0 0 0 0 127 0" result="hardAlpha"/>
<feOffset/>
<feGaussianBlur stdDeviation="4.49963"/>
<feComposite in2="hardAlpha" operator="arithmetic" k2="-1" k3="1"/>
<feColorMatrix type="matrix" values="0 0 0 0 0.23559 0 0 0 0 0.238151 0 0 0 0 0.245833 0 0 0 1 0"/>
<feBlend mode="normal" in2="shape" result="effect1_innerShadow_2032_297"/>
</filter>
<filter id="filter2_d_2032_297" x="21.5326" y="19.3449" width="15.1008" height="17.6418" filterUnits="userSpaceOnUse" color-interpolation-filters="sRGB">
<feFlood flood-opacity="0" result="BackgroundImageFix"/>
<feColorMatrix in="SourceAlpha" type="matrix" values="0 0 0 0 0 0 0 0 0 0 0 0 0 0 0 0 0 0 127 0" result="hardAlpha"/>
<feOffset dy="0.775695"/>
<feGaussianBlur stdDeviation="0.775695"/>
<feColorMatrix type="matrix" values="0 0 0 0 0.19669 0 0 0 0 0.27695 0 0 0 0 0.483333 0 0 0 0.2 0"/>
<feBlend mode="normal" in2="BackgroundImageFix" result="effect1_dropShadow_2032_297"/>
<feBlend mode="normal" in="SourceGraphic" in2="effect1_dropShadow_2032_297" result="shape"/>
</filter>
<filter id="filter3_i_2032_297" x="24.6357" y="21.6719" width="8.89551" height="12.2122" filterUnits="userSpaceOnUse" color-interpolation-filters="sRGB">
<feFlood flood-opacity="0" result="BackgroundImageFix"/>
<feBlend mode="normal" in="SourceGraphic" in2="BackgroundImageFix" result="shape"/>
<feColorMatrix in="SourceAlpha" type="matrix" values="0 0 0 0 0 0 0 0 0 0 0 0 0 0 0 0 0 0 127 0" result="hardAlpha"/>
<feOffset dy="0.775695"/>
<feGaussianBlur stdDeviation="0.387847"/>
<feComposite in2="hardAlpha" operator="arithmetic" k2="-1" k3="1"/>
<feColorMatrix type="matrix" values="0 0 0 0 0.324977 0 0 0 0 0.428027 0 0 0 0 0.579167 0 0 0 0.4 0"/>
<feBlend mode="normal" in2="shape" result="effect1_innerShadow_2032_297"/>
</filter>
<linearGradient id="paint0_linear_2032_297" x1="15.5987" y1="12.999" x2="30.6975" y2="43.8965" gradientUnits="userSpaceOnUse">
<stop stop-color="#ECEFF7"/>
<stop offset="1" stop-color="#B5B5B6"/>
</linearGradient>
<radialGradient id="paint1_radial_2032_297" cx="0" cy="0" r="1" gradientUnits="userSpaceOnUse" gradientTransform="translate(28.9986 28.9978) rotate(90) scale(18.3793 17.4447)">
<stop stop-color="#9B9DA2"/>
<stop offset="1" stop-color="#67676A"/>
</radialGradient>
<radialGradient id="paint2_radial_2032_297" cx="0" cy="0" r="1" gradientUnits="userSpaceOnUse" gradientTransform="translate(24.0451 24.6866) rotate(-45.741) scale(11.8808 6.30601)">
<stop stop-color="white"/>
<stop offset="1" stop-color="white" stop-opacity="0"/>
</radialGradient>
<linearGradient id="paint3_linear_2032_297" x1="28.9986" y1="17.1987" x2="28.9986" y2="40.7968" gradientUnits="userSpaceOnUse">
<stop stop-opacity="0"/>
<stop offset="1"/>
</linearGradient>
<linearGradient id="paint4_linear_2032_297" x1="28.9986" y1="17.1987" x2="28.9986" y2="40.7968" gradientUnits="userSpaceOnUse">
<stop stop-color="#ACACAC"/>
<stop offset="1" stop-color="#DFE3EA"/>
</linearGradient>
<linearGradient id="paint5_linear_2032_297" x1="22.1984" y1="14.6992" x2="32.6975" y2="41.297" gradientUnits="userSpaceOnUse">
<stop stop-color="#FBFCFF"/>
<stop offset="1" stop-color="#D4D6D9"/>
</linearGradient>
<linearGradient id="paint6_linear_2032_297" x1="24.6357" y1="21.6719" x2="24.6357" y2="33.1084" gradientUnits="userSpaceOnUse">
<stop stop-color="#A3B0C5"/>
<stop offset="1" stop-color="#7A8AA1"/>
</linearGradient>
</defs>
</svg>