<svg width="56" height="56" viewBox="0 0 56 56" fill="none" xmlns="http://www.w3.org/2000/svg">
<circle cx="28" cy="28" r="28" fill="#FF9C67"/>
<path d="M26.7762 9.44889C26.0493 9.45962 25.3137 9.50509 24.5715 9.59287C23.4804 9.78895 22.4265 10.1058 21.4845 10.5147C20.2977 10.96 19.0703 11.4201 17.9608 11.4855C17.9047 11.4885 17.8497 11.4963 17.7955 11.5077C16.2443 11.8383 14.9065 12.6297 14.0454 13.7165L13.907 13.8827C13.8785 13.9177 13.8518 13.9546 13.8298 13.9926C13.0708 15.3043 12.8687 16.8066 13.2781 18.2765C13.5412 18.9871 13.855 19.6696 14.1586 20.3308L14.252 20.5312C14.9614 21.9061 15.4766 23.3504 15.7848 24.824C15.8004 24.8985 15.8287 24.9709 15.8692 25.0378C16.1719 25.5333 16.4087 26.0548 16.5808 26.6157C16.6571 26.8353 16.7351 27.0609 16.8198 27.2881C16.8437 27.3527 16.8898 27.4056 16.9312 27.4603C16.933 27.5401 16.9457 27.6203 16.9779 27.6978L18.2555 30.717C18.3419 30.9222 18.5301 31.0862 18.773 31.1683C19.0168 31.2503 19.2903 31.2425 19.5259 31.1475C21.9381 30.1792 27.5881 27.9122 35.3833 31.9387C35.5323 32.0154 35.7018 32.0544 35.872 32.0544C35.9962 32.0544 36.12 32.0347 36.2368 31.9921C36.5146 31.8925 36.7161 31.6869 36.7741 31.4414C36.9627 30.6487 37.0298 29.3764 36.9681 28.3405L37.0256 28.1134C37.1001 27.8132 37.1738 27.5089 37.252 27.208C37.9807 25.8688 39.2694 24.5743 40.517 23.3219C42.472 21.3588 44.4939 19.3294 44.3191 17.0608C44.3109 16.9574 44.2782 16.8558 44.2221 16.7639C43.9341 16.2957 43.6115 15.84 43.2123 15.3285L43.135 15.2261C43.0421 15.106 42.9486 14.9875 42.8529 14.8743C42.7811 14.7892 42.7081 14.7084 42.6355 14.6294L42.5582 14.5433C42.4119 14.3821 42.2661 14.2217 42.1162 14.0697C42.0352 13.9892 41.9552 13.9125 41.8484 13.813C41.6819 13.6549 41.5164 13.5024 41.3471 13.3572L41.1243 13.1702C40.9283 13.0099 40.7317 12.8573 40.5385 12.7175L40.3966 12.6165C37.9503 10.8929 35.438 10.4395 33.908 10.1629L33.0545 10.004C31.0618 9.68827 28.957 9.41668 26.7762 9.44889ZM27.6891 10.9719C28.5217 10.9921 29.3679 11.0578 30.2442 11.1574C27.2469 14.8442 27.758 19.8296 28.4563 24.1783C27.5418 24.1198 26.6051 24.1032 25.6658 24.1412C25.134 21.5527 24.5781 18.3031 24.1043 15.7426C23.9626 14.5897 24.0855 13.4257 24.4655 12.3108C24.8427 11.6397 24.878 11.2609 25.2166 11.058C26.0386 10.9763 26.8565 10.9516 27.6891 10.9719ZM24.7188 11.1307C24.3113 11.4157 24.0138 11.8655 23.8114 12.4355C23.4719 13.5945 23.3568 14.7893 23.47 15.9787C23.6945 18.7557 24.3051 21.4974 25.2435 24.165C24.3566 24.2167 23.4746 24.3142 22.6255 24.4708C21.9815 22.6369 22.0949 20.553 21.887 18.6105C21.6763 16.3897 20.7921 14.286 19.666 13.0411C19.5887 12.8891 19.5981 12.8125 19.6211 12.7501C20.1105 12.6316 20.5929 12.4868 21.0676 12.3226C21.1237 12.3485 21.1805 12.3738 21.2311 12.4072L21.2491 12.3894C21.1994 12.3606 21.147 12.3388 21.0945 12.3137C21.5012 12.1724 21.903 12.027 22.2912 11.8803C23.0769 11.5398 23.9092 11.2918 24.7188 11.1307ZM21.2311 12.4072L21.2203 12.4176H21.2491C21.2435 12.4138 21.2375 12.4118 21.2311 12.4072ZM30.2945 11.1619C31.0627 11.25 31.8528 11.3614 32.6808 11.4929L33.5433 11.6532C34.1808 11.7687 34.9696 11.9159 35.8307 12.1712C34.3403 14.373 33.3348 16.7781 32.8766 19.2755C32.5473 21.0812 32.3968 22.9036 32.3987 24.7276C31.2781 24.4745 29.9956 24.2875 28.645 24.1917C28.5916 23.2227 28.5531 22.2371 28.6019 21.6831C28.762 19.8477 28.9477 14.1722 30.2945 11.1619ZM36.0661 12.238C37.056 12.5519 38.1344 13.0197 39.2016 13.7714L39.322 13.859C39.4913 13.9813 39.6595 14.1125 39.8287 14.2508L40.0228 14.4126C40.1682 14.538 40.3134 14.6707 40.4882 14.8372C40.5572 14.9025 40.6259 14.9677 40.693 15.0346C40.7942 15.1372 40.8928 15.2473 40.9931 15.3567C39.293 15.9024 36.4704 21.0813 36.0859 25.7637C36.0187 25.8617 35.949 25.9588 35.8864 26.0576C35.1182 25.524 34.0281 25.1381 33.0473 24.8805C32.8928 24.8402 32.7259 24.8042 32.564 24.7662C32.7112 22.93 32.9195 21.0055 33.121 19.2651C33.7742 16.4075 35.4479 14.9421 36.0661 12.238ZM19.3336 12.8229C19.3787 12.9293 19.4491 13.0294 19.542 13.1153C20.6571 14.3647 20.8733 16.3973 21.1143 18.6134C21.3195 20.5674 21.5547 22.6626 22.4278 24.5079C21.6835 24.6546 20.9702 24.8481 20.2967 25.0897C19.7466 23.4459 19.4844 21.5925 19.0695 19.9167C18.5064 17.6504 18.4327 15.6221 17.5026 15.0034C17.1456 14.5968 16.1902 14.6328 16.6419 13.8857C16.7495 13.7261 16.8832 13.5804 17.012 13.4315C17.3764 13.2475 17.7623 13.0915 18.1818 12.9965C18.5664 12.9684 18.9509 12.905 19.3336 12.8229ZM16.7048 13.5844C16.6183 13.6816 16.5328 13.7807 16.4712 13.8916C16.3047 14.1455 16.2323 14.4341 16.2645 14.7214C16.2931 14.8719 16.3671 15.0147 16.4766 15.137C17.3956 15.7427 17.8722 17.6676 18.4298 19.9256C18.8502 21.6272 19.3368 23.51 20.0811 25.1744C19.4371 25.4198 18.8387 25.7147 18.2968 26.062C18.1146 25.511 17.8772 24.9704 17.5727 24.4559C17.2378 22.904 16.6905 21.3846 15.9573 19.9642L15.8782 19.792C15.5856 19.1544 15.2825 18.4956 15.0534 17.8861C14.759 16.8213 14.9021 15.6924 15.4577 14.7021L15.5691 14.57C15.8755 14.1831 16.2613 13.8511 16.7048 13.5844ZM41.0776 15.4487C41.0794 15.4503 41.0793 15.4509 41.0812 15.4532L41.1674 15.5467C41.2281 15.6113 41.2874 15.6772 41.3453 15.7456C41.4263 15.8414 41.5052 15.9429 41.5843 16.0455L41.667 16.1523C41.9899 16.565 42.2544 16.9363 42.4899 17.3072C42.5102 18.9298 40.8509 20.5961 39.0974 22.357C38.4148 23.0418 37.7222 23.7383 37.0957 24.4619C38.5116 21.4675 39.8788 18.4842 41.0776 15.4487ZM26.2947 25.6553C28.5303 25.613 30.7785 25.8808 32.4903 26.3307C34.5336 26.8672 35.0208 27.4298 35.0401 27.5924C35.0741 27.7794 35.0981 28.0069 35.1155 28.247L35.1102 28.2663C35.0789 28.3902 35.0975 28.51 35.1371 28.624C35.1546 29.0876 35.1486 29.587 35.1173 30.049C31.9093 28.6035 29.0234 28.1194 26.5642 28.1194C23.5595 28.1194 21.1934 28.8429 19.657 29.4167L18.8987 27.6251C20.5672 26.2759 23.4204 25.7097 26.2947 25.6553ZM21.6138 32.6096L21.197 32.8412C21.3736 33.0859 21.6021 33.3023 21.8708 33.4809C22.0824 33.5904 22.3294 33.6437 22.5787 33.6338C22.7066 33.633 22.8328 33.6189 22.9561 33.5893L24.3469 33.1737C24.4416 33.1433 24.5422 33.1276 24.6434 33.1276C24.7961 33.1193 24.9485 33.1534 25.0764 33.2241C25.2521 33.3427 25.4041 33.4817 25.5274 33.6383L25.9227 33.4557V33.4468C25.7516 33.2271 25.5377 33.0327 25.2902 32.8708C25.0915 32.7568 24.8548 32.6963 24.6128 32.7001C24.5319 32.6986 24.4501 32.7114 24.3756 32.7372L22.8698 33.1529C22.7742 33.1772 22.6736 33.1878 22.5734 33.1855C22.3949 33.1962 22.2165 33.1556 22.0702 33.0697C21.8872 32.9383 21.7334 32.7829 21.6138 32.6096ZM37.0616 33.4379C36.918 33.4485 36.7861 33.5069 36.695 33.5997C36.5855 33.6764 36.5157 33.7839 36.4991 33.9025C36.489 33.9283 36.489 33.9568 36.4991 33.9826C36.823 34.2654 37.2368 34.4643 37.6941 34.5586C38.1513 34.6749 38.609 34.787 39.0561 34.8911C39.5087 35.015 39.893 35.2684 40.1414 35.6051C40.146 35.6203 40.146 35.6359 40.1414 35.6511C40.1414 35.7218 39.936 35.8372 39.5395 36.0029C39.3389 36.0986 39.0373 36.3094 38.535 36.6248C38.2213 36.8369 37.8857 37.0248 37.5305 37.1859C37.2288 37.2969 36.9639 37.4681 36.7615 37.6832C36.7569 37.687 36.7526 37.6905 36.7489 37.6951C36.5888 37.8471 36.608 38.0794 36.792 38.2116C36.8877 38.2876 37.0162 38.3289 37.1496 38.3274C37.2444 38.3259 37.3372 38.306 37.4209 38.2695C38.0686 37.9321 38.6909 37.5612 39.2843 37.1607C39.886 36.7488 40.5143 36.3624 41.1638 36.0029C41.5254 35.8205 41.7011 35.6297 41.7011 35.4344C41.6891 35.3036 41.6027 35.1851 41.4693 35.1152C40.6948 34.5407 39.7811 34.1142 38.7902 33.8579L38.0606 33.5967C37.815 33.5047 37.5512 33.4508 37.2826 33.4379C37.209 33.4295 37.1342 33.4295 37.0616 33.4379ZM17.021 33.4809C16.3789 33.8792 15.6764 34.2055 14.9312 34.4517C14.1925 34.7033 13.4927 35.0267 12.8469 35.4151C12.5332 35.6469 12.3502 35.9762 12.3438 36.3235C12.3805 36.455 12.4938 36.5643 12.6456 36.6144C12.7809 36.6517 12.9227 36.6965 13.0589 36.7421C14.4325 37.2232 15.7215 37.7415 16.9276 38.2947C17.0877 38.3905 17.2378 38.4954 17.3786 38.6094C17.4706 38.6429 17.5694 38.6599 17.6697 38.6599C17.9172 38.6614 18.1585 38.591 18.3489 38.461C18.543 38.347 18.6452 38.1546 18.6148 37.9593C18.6231 37.8156 18.5189 37.6829 18.3579 37.6297L16.2789 36.8742C15.5889 36.6325 14.9159 36.3553 14.2682 36.0444C14.7227 35.577 15.3355 35.2308 16.0273 35.0484C16.7146 34.8653 17.3488 34.5671 17.8907 34.1726C17.9689 34.1111 18.012 34.0255 18.0111 33.9366C18.0074 33.8112 17.9358 33.6935 17.8152 33.6175C17.6717 33.5263 17.4951 33.4779 17.3139 33.4809H17.021ZM31.5595 34.6551C31.1547 34.6429 30.7598 34.764 30.4598 34.9905C30.1222 35.2664 29.9804 35.6658 30.0825 36.0489C30.1285 36.4106 30.3041 36.7533 30.5856 37.033C30.823 37.2945 31.1945 37.4472 31.5901 37.4472C31.8495 37.4441 32.1032 37.388 32.3286 37.2824C32.8226 36.9906 33.0824 36.4977 33.006 35.9999C32.9812 35.4398 32.8212 35.0616 32.5047 34.8792C32.225 34.7257 31.8953 34.6475 31.5595 34.6551ZM23.7629 34.6833C23.3581 34.6703 22.9631 34.79 22.6632 35.0158C22.3237 35.2909 22.1793 35.6903 22.2805 36.0741C22.3292 36.4351 22.5048 36.7771 22.7836 37.0583C23.02 37.3197 23.3924 37.4732 23.788 37.4724C24.0475 37.4686 24.3002 37.4125 24.5266 37.3076C24.9783 37.0834 25.2004 36.6597 25.2004 36.0251C25.2584 35.6087 25.076 35.1932 24.708 34.9044C24.4284 34.7517 24.0978 34.6749 23.7629 34.6833ZM23.7431 35.5754C24.021 35.5754 24.2462 35.7615 24.2462 35.991C24.2462 36.2205 24.021 36.4066 23.7431 36.4066C23.4653 36.4066 23.24 36.2205 23.24 35.991C23.24 35.7615 23.4653 35.5754 23.7431 35.5754ZM31.3996 35.6229C31.6765 35.6221 31.9027 35.8075 31.9027 36.037C31.9027 36.2665 31.6765 36.4526 31.3996 36.4526C31.1218 36.4526 30.8983 36.2665 30.8983 36.037C30.8983 35.8075 31.1218 35.6229 31.3996 35.6229ZM26.5319 38.5367C26.5208 38.5458 26.514 38.5564 26.5085 38.5694V38.6035C26.5775 38.7623 26.6642 38.914 26.7691 39.0592C26.8638 39.1983 26.9832 39.3268 27.1212 39.4377C27.2454 39.5449 27.3906 39.6336 27.5525 39.699C27.7117 39.7544 27.8827 39.785 28.0556 39.7895L28.0754 39.8073C28.2143 39.8081 28.3518 39.7868 28.4815 39.745C28.6057 39.7032 28.7233 39.6493 28.8319 39.5847C28.9349 39.5163 29.032 39.4418 29.1194 39.3605C29.2022 39.283 29.2751 39.2001 29.3386 39.1112C29.3993 39.0329 29.4543 38.9514 29.5003 38.8662C29.5362 38.8047 29.5654 38.7416 29.5866 38.6762V38.6391C29.5764 38.6277 29.5678 38.6149 29.5614 38.602C29.4308 38.7685 29.2684 38.9146 29.0798 39.0369C28.9354 39.1494 28.7635 39.236 28.5767 39.2908C28.3881 39.3447 28.1888 39.371 27.9891 39.3694C27.8189 39.3717 27.6489 39.3518 27.486 39.3115C27.3462 39.2751 27.2156 39.2183 27.0997 39.1453C26.9819 39.067 26.8754 38.9791 26.7834 38.8811C26.6868 38.7732 26.6018 38.6575 26.5319 38.5367ZM25.2004 40.1294C23.1911 40.2168 22.02 42.3487 19.2168 40.3818C18.4532 44.1582 24.0397 44.5327 26.336 42.8265C27.9239 41.6561 27.4765 40.0253 25.2004 40.1294ZM29.804 40.1294C27.8852 40.2272 27.5858 41.73 29.0745 42.8265C31.3708 44.532 36.9555 44.1582 36.1919 40.3818C33.3886 42.3487 32.2185 40.2161 30.2083 40.1294C30.066 40.1229 29.9319 40.1229 29.804 40.1294Z" fill="#232530"/>
</svg>
