<svg width="39" height="38" viewBox="0 0 39 38" fill="none" xmlns="http://www.w3.org/2000/svg">
<g id="icons8-codechef 2">
<path id="Vector" d="M18.4628 1.44889C17.8465 1.45962 17.2228 1.50509 16.5936 1.59287C15.6685 1.78895 14.775 2.10579 13.9763 2.51467C12.9701 2.96003 11.9295 3.42009 10.9888 3.48545C10.9412 3.48849 10.8947 3.49632 10.8487 3.50772C9.53359 3.83832 8.39934 4.62967 7.66926 5.71647L7.55195 5.88272C7.52777 5.91768 7.50517 5.95456 7.48645 5.99256C6.84295 7.30432 6.67165 8.80663 7.01875 10.2765C7.24183 10.9871 7.50783 11.6696 7.76523 12.3308L7.84445 12.5312C8.44583 13.9061 8.88265 15.3504 9.14395 16.824C9.15721 16.8985 9.18123 16.9709 9.21555 17.0378C9.47217 17.5333 9.67297 18.0548 9.81883 18.6157C9.88357 18.8353 9.94969 19.0609 10.0214 19.2881C10.0417 19.3527 10.0808 19.4056 10.1159 19.4603C10.1175 19.5401 10.1282 19.6203 10.1555 19.6978L11.2387 22.717C11.312 22.9222 11.4715 23.0862 11.6774 23.1683C11.8841 23.2503 12.1161 23.2425 12.3157 23.1475C14.3609 22.1792 19.1511 19.9122 25.7601 23.9387C25.8864 24.0154 26.0302 24.0544 26.1745 24.0544C26.2798 24.0544 26.3846 24.0347 26.4837 23.9921C26.7193 23.8925 26.8901 23.6869 26.9392 23.4414C27.0991 22.6487 27.156 21.3764 27.1037 20.3405L27.1525 20.1134C27.2157 19.8132 27.2782 19.5089 27.3445 19.208C27.9622 17.8688 29.0549 16.5743 30.1125 15.3219C31.77 13.3588 33.4843 11.3294 33.3361 9.06076C33.3291 8.9574 33.3014 8.85585 33.2539 8.76389C33.0097 8.29573 32.7362 7.83998 32.3977 7.3285L32.3322 7.22608C32.2534 7.106 32.1741 6.98752 32.093 6.87428C32.0322 6.78916 31.9703 6.7084 31.9087 6.62936L31.8432 6.54326C31.7191 6.38214 31.5955 6.22175 31.4684 6.06975C31.3998 5.98919 31.3319 5.91251 31.2414 5.81295C31.1002 5.65487 30.9599 5.50241 30.8164 5.35725L30.6275 5.17022C30.4613 5.00986 30.2946 4.85732 30.1308 4.71748L30.0105 4.61655C27.9364 2.89287 25.8065 2.43951 24.5093 2.16287L23.7857 2.00405C22.0962 1.68827 20.3117 1.41668 18.4628 1.44889ZM19.2367 2.97186C19.9426 2.99209 20.6601 3.05785 21.403 3.15741C18.8618 6.84416 19.2952 11.8296 19.8872 16.1783C19.1119 16.1198 18.3177 16.1032 17.5213 16.1412C17.0705 13.5527 16.5992 10.3031 16.1975 7.74264C16.0773 6.58972 16.1815 5.42568 16.5037 4.31076C16.8235 3.63968 16.8534 3.26087 17.1405 3.05795C17.8374 2.97625 18.5308 2.95162 19.2367 2.97186ZM16.7185 3.13069C16.3729 3.41569 16.1207 3.86545 15.9491 4.43545C15.6613 5.59445 15.5637 6.78925 15.6597 7.97865C15.85 10.7557 16.3677 13.4974 17.1633 16.165C16.4114 16.2167 15.6636 16.3142 14.9437 16.4708C14.3977 14.6369 14.4938 12.553 14.3175 10.6105C14.1389 8.38973 13.3893 6.28596 12.4346 5.04108C12.3691 4.88908 12.377 4.81246 12.3965 4.75014C12.8114 4.63158 13.2204 4.4868 13.6229 4.32264C13.6704 4.34848 13.7186 4.37381 13.7615 4.40725L13.7767 4.38944C13.7346 4.36056 13.6902 4.33881 13.6457 4.31373C13.9905 4.17237 14.3312 4.02698 14.6603 3.8803C15.3264 3.53982 16.0321 3.29181 16.7185 3.13069ZM13.7615 4.40725L13.7523 4.41764H13.7767C13.772 4.41384 13.7669 4.41181 13.7615 4.40725ZM21.4457 3.16186C22.097 3.25002 22.7668 3.36139 23.4688 3.49287L24.2001 3.65319C24.7406 3.76871 25.4093 3.91587 26.1394 4.17123C24.8758 6.37295 24.0233 8.77809 23.6349 11.2755C23.3556 13.0812 23.2281 14.9036 23.2296 16.7276C22.2796 16.4745 21.1922 16.2875 20.0472 16.1917C20.0019 15.2227 19.9693 14.2371 20.0106 13.6831C20.1463 11.8477 20.3038 6.17222 21.4457 3.16186ZM26.339 4.23803C27.1783 4.55191 28.0926 5.01975 28.9974 5.77139L29.0995 5.85897C29.243 5.98133 29.3855 6.11252 29.5291 6.25084L29.6936 6.41264C29.8168 6.53804 29.94 6.67073 30.0882 6.83717C30.1467 6.90253 30.2049 6.96771 30.2618 7.03459C30.3476 7.13719 30.4312 7.24726 30.5162 7.3567C29.0748 7.90238 26.6818 13.0813 26.3557 17.7637C26.2988 17.8617 26.2397 17.9588 26.1866 18.0576C25.5353 17.524 24.6111 17.1381 23.7796 16.8805C23.6486 16.8402 23.5071 16.8042 23.3698 16.7662C23.4946 14.93 23.6712 13.0055 23.8421 11.2651C24.3959 8.40746 25.8148 6.94211 26.339 4.23803ZM12.1527 4.82287C12.191 4.92927 12.2507 5.02942 12.3295 5.1153C13.2748 6.36474 13.4581 8.39726 13.6625 10.6134C13.8364 12.5674 14.0359 14.6626 14.7761 16.5079C14.1451 16.6546 13.5403 16.8481 12.9693 17.0897C12.5029 15.4459 12.2806 13.5925 11.9288 11.9167C11.4514 9.65038 11.3889 7.62206 10.6004 7.00342C10.2977 6.59682 9.48764 6.63277 9.87062 5.88569C9.96188 5.72609 10.0753 5.58043 10.1845 5.43147C10.4933 5.24755 10.8205 5.09155 11.1762 4.99655C11.5023 4.96843 11.8283 4.90495 12.1527 4.82287ZM9.92395 5.58436C9.85063 5.68164 9.77816 5.78066 9.7259 5.89162C9.58472 6.14546 9.5234 6.43411 9.5507 6.72139C9.57488 6.87187 9.63765 7.01465 9.73047 7.13701C10.5097 7.74273 10.9138 9.66765 11.3864 11.9256C11.7429 13.6272 12.1555 15.51 12.7865 17.1744C12.2405 17.4198 11.7331 17.7147 11.2737 18.062C11.1193 17.511 10.9179 16.9704 10.6598 16.4559C10.3758 14.904 9.91186 13.3846 9.2902 11.9642L9.22316 11.792C8.97512 11.1544 8.71813 10.4956 8.52391 9.88608C8.27431 8.82132 8.39556 7.69237 8.86668 6.70209L8.96113 6.56998C9.22087 6.18314 9.54799 5.85112 9.92395 5.58436ZM30.5879 7.44873C30.5894 7.45025 30.5893 7.45091 30.5909 7.45319L30.664 7.5467C30.7155 7.6113 30.7657 7.67721 30.8148 7.74561C30.8835 7.84137 30.9504 7.94285 31.0175 8.04545L31.0875 8.15233C31.3613 8.56501 31.5856 8.93629 31.7853 9.30717C31.8024 10.9298 30.3957 12.5961 28.909 14.357C28.3303 15.0418 27.7431 15.7383 27.2119 16.4619C28.4123 13.4675 29.5715 10.4842 30.5879 7.44873ZM18.0545 17.6553C19.9499 17.613 21.856 17.8808 23.3073 18.3307C25.0397 18.8672 25.4527 19.4298 25.4691 19.5924C25.498 19.7794 25.5183 20.0069 25.5331 20.247L25.5285 20.2663C25.502 20.3902 25.5178 20.51 25.5514 20.624C25.5662 21.0876 25.5611 21.587 25.5346 22.049C22.8147 20.6035 20.368 20.1194 18.283 20.1194C15.7356 20.1194 13.7296 20.8429 12.427 21.4167L11.7841 19.6251C13.1986 18.2759 15.6176 17.7097 18.0545 17.6553ZM14.086 24.6096L13.7325 24.8412C13.8823 25.0859 14.0761 25.3023 14.3038 25.4809C14.4832 25.5904 14.6927 25.6437 14.9041 25.6338C15.0125 25.633 15.1195 25.6189 15.224 25.5893L16.4031 25.1737C16.4835 25.1433 16.5687 25.1276 16.6545 25.1276C16.784 25.1193 16.9132 25.1534 17.0216 25.2241C17.1706 25.3427 17.2995 25.4817 17.404 25.6383L17.7392 25.4557V25.4468C17.5941 25.2271 17.4127 25.0327 17.2029 24.8708C17.0344 24.7568 16.8337 24.6963 16.6286 24.7001C16.56 24.6986 16.4907 24.7114 16.4275 24.7372L15.1509 25.1529C15.0697 25.1772 14.9845 25.1878 14.8995 25.1855C14.7482 25.1962 14.5969 25.1556 14.4729 25.0697C14.3177 24.9383 14.1874 24.7829 14.086 24.6096ZM27.183 25.4379C27.0613 25.4485 26.9494 25.5069 26.8722 25.5997C26.7794 25.6764 26.7202 25.7839 26.7061 25.9025C26.6976 25.9283 26.6976 25.9568 26.7061 25.9826C26.9807 26.2654 27.3316 26.4643 27.7192 26.5586C28.1069 26.6749 28.4949 26.787 28.874 26.8911C29.2577 27.015 29.5835 27.2684 29.7941 27.6051C29.798 27.6203 29.798 27.6359 29.7941 27.6511C29.7941 27.7218 29.62 27.8372 29.2838 28.0029C29.1137 28.0986 28.8581 28.3094 28.4322 28.6248C28.1662 28.8369 27.8817 29.0248 27.5806 29.1859C27.3247 29.2969 27.1002 29.4681 26.9286 29.6832C26.9247 29.687 26.921 29.6905 26.9179 29.6951C26.7822 29.8471 26.7985 30.0794 26.9545 30.2116C27.0356 30.2876 27.1445 30.3289 27.2576 30.3274C27.338 30.3259 27.4167 30.306 27.4877 30.2695C28.0368 29.9321 28.5644 29.5612 29.0675 29.1607C29.5776 28.7488 30.1103 28.3624 30.661 28.0029C30.9675 27.8205 31.1165 27.6297 31.1165 27.4344C31.1063 27.3036 31.0331 27.1851 30.92 27.1152C30.2633 26.5407 29.4886 26.1142 28.6485 25.858L28.03 25.5967C27.8217 25.5047 27.5981 25.4508 27.3703 25.4379C27.308 25.4295 27.2446 25.4295 27.183 25.4379ZM10.1921 25.4809C9.64763 25.8792 9.05211 26.2055 8.42031 26.4517C7.79397 26.7033 7.20068 27.0267 6.65312 27.4151C6.38714 27.6469 6.23202 27.9762 6.22656 28.3235C6.25776 28.455 6.3538 28.5643 6.4825 28.6144C6.59716 28.6517 6.71745 28.6965 6.83289 28.7421C7.99743 29.2232 9.09027 29.7415 10.1129 30.2947C10.2486 30.3905 10.3759 30.4954 10.4952 30.6094C10.5732 30.6429 10.657 30.6599 10.742 30.6599C10.9519 30.6614 11.1564 30.591 11.3179 30.461C11.4825 30.347 11.5691 30.1546 11.5434 29.9593C11.5504 29.8156 11.462 29.6829 11.3255 29.6297L9.56289 28.8742C8.97789 28.6325 8.40728 28.3553 7.85816 28.0444C8.24348 27.577 8.76305 27.2308 9.34961 27.0484C9.93227 26.8653 10.47 26.5671 10.9294 26.1726C10.9957 26.1111 11.0323 26.0255 11.0315 25.9366C11.0284 25.8112 10.9676 25.6935 10.8654 25.6175C10.7437 25.5263 10.5941 25.4779 10.4404 25.4809H10.1921ZM22.5182 26.6551C22.175 26.6429 21.8401 26.764 21.5859 26.9905C21.2996 27.2664 21.1794 27.6658 21.2659 28.0489C21.3049 28.4106 21.4538 28.7533 21.6925 29.033C21.8937 29.2945 22.2087 29.4472 22.5441 29.4472C22.7641 29.4441 22.9791 29.388 23.1702 29.2824C23.5891 28.9906 23.8093 28.4977 23.7446 27.9999C23.7235 27.4398 23.5879 27.0616 23.3195 26.8792C23.0824 26.7257 22.8029 26.6475 22.5182 26.6551ZM15.908 26.6833C15.5648 26.6703 15.2299 26.79 14.9757 27.0158C14.6878 27.2909 14.5654 27.6903 14.6512 28.0741C14.6925 28.4351 14.8414 28.7771 15.0777 29.0583C15.2782 29.3197 15.5939 29.4732 15.9293 29.4724C16.1493 29.4686 16.3636 29.4125 16.5555 29.3076C16.9384 29.0834 17.1268 28.6597 17.1268 28.0251C17.1759 27.6087 17.0213 27.1932 16.7093 26.9044C16.4722 26.7517 16.1919 26.6749 15.908 26.6833ZM15.8912 27.5754C16.1268 27.5754 16.3178 27.7615 16.3178 27.991C16.3178 28.2205 16.1268 28.4066 15.8912 28.4066C15.6557 28.4066 15.4647 28.2205 15.4647 27.991C15.4647 27.7615 15.6557 27.5754 15.8912 27.5754ZM22.3826 27.6229C22.6174 27.6221 22.8092 27.8075 22.8092 28.037C22.8092 28.2665 22.6174 28.4526 22.3826 28.4526C22.1471 28.4526 21.9576 28.2665 21.9576 28.037C21.9576 27.8075 22.1471 27.6229 22.3826 27.6229ZM18.2556 30.5367C18.2463 30.5458 18.2405 30.5564 18.2358 30.5694V30.6035C18.2943 30.7623 18.3678 30.914 18.4567 31.0592C18.5371 31.1983 18.6383 31.3268 18.7553 31.4377C18.8606 31.5449 18.9837 31.6336 19.1209 31.699C19.2559 31.7544 19.4009 31.785 19.5475 31.7895L19.5643 31.8073C19.682 31.8081 19.7986 31.7868 19.9086 31.745C20.0139 31.7032 20.1136 31.6493 20.2056 31.5847C20.293 31.5163 20.3753 31.4418 20.4494 31.3605C20.5196 31.283 20.5814 31.2001 20.6352 31.1112C20.6867 31.0329 20.7333 30.9514 20.7723 30.8662C20.8028 30.8047 20.8275 30.7416 20.8455 30.6762V30.6391C20.8369 30.6277 20.8296 30.6149 20.8241 30.602C20.7134 30.7685 20.5758 30.9146 20.4159 31.0369C20.2934 31.1494 20.1476 31.236 19.9893 31.2908C19.8294 31.3447 19.6604 31.371 19.4911 31.3694C19.3468 31.3717 19.2026 31.3518 19.0646 31.3115C18.946 31.2751 18.8353 31.2183 18.737 31.1453C18.6372 31.067 18.5469 30.9791 18.4689 30.8811C18.387 30.7732 18.3149 30.6575 18.2556 30.5367ZM17.1268 32.1294C15.4232 32.2168 14.4304 34.3487 12.0537 32.3818C11.4063 36.1582 16.1427 36.5327 18.0896 34.8265C19.4359 33.6561 19.0565 32.0253 17.1268 32.1294ZM21.0298 32.1294C19.403 32.2272 19.1492 33.73 20.4113 34.8265C22.3582 36.532 27.093 36.1582 26.4456 32.3818C24.069 34.3487 23.0769 32.2161 21.3726 32.1294C21.252 32.1229 21.1383 32.1229 21.0298 32.1294Z" fill="#232530"/>
</g>
</svg>
